# xmcd
#
# Track frame offsets: 
#        150
#        11513
#        24950
#        37359
#        50980
#        63862
#        76331
#        90239
#        103363
#        115299
#        126332
#        141317
#        153235
#        165771
#        178109
#        191653
#        203665
#        218173
#        229463
#        241459
#
# Disc length: 3371 seconds
#
# Revision: 1
# Processed by: cddbd v1.5.2PL0 Copyright (c) Steve Scherf et al.
# Submitted via: ExactAudioCopyFreeDBPlugin 1.0
#
DISCID=180d2914
DTITLE=Willie Dixon, Floyd Dixon - ABC Of The Blues - Vol. 09 Dixon
DYEAR=2010
DGENRE=Blues
TTITLE0=Willie Dixon - Don't Let That Music Die
TTITLE1=Willie Dixon - I Ain't Gonna Be Your Monkey Man
TTITLE2=Willie Dixon - Monkey Tree Blues
TTITLE3=Willie Dixon - Since My Baby Gone
TTITLE4=Willie Dixon - No One to Love Me
TTITLE5=Willie Dixon - Hard Notch Boogie Beat
TTITLE6=Willie Dixon - If the Sea Wa Whiskey
TTITLE7=Willie Dixon - Got You on My Mind
TTITLE8=Willie Dixon - Tell That Woman
TTITLE9=Willie Dixon - Come Here Baby
TTITLE10=Floyd Dixon - Dallas Blues
TTITLE11=Floyd Dixon - Moonshine
TTITLE12=Floyd Dixon - Real Lovin' Mama
TTITLE13=Floyd Dixon - Prairie Dog Blues
TTITLE14=Floyd Dixon - Shuffle Blues
TTITLE15=Floyd Dixon - Blues for Cuba
TTITLE16=Floyd Dixon - Telephone Blues
TTITLE17=Floyd Dixon - Lovin'
TTITLE18=Floyd Dixon - Let's Dance
TTITLE19=Floyd Dixon - Opportunity Blues
EXTD=
EXTT0=
EXTT1=
EXTT2=
EXTT3=
EXTT4=
EXTT5=
EXTT6=
EXTT7=
EXTT8=
EXTT9=
EXTT10=
EXTT11=
EXTT12=
EXTT13=
EXTT14=
EXTT15=
EXTT16=
EXTT17=
EXTT18=
EXTT19=
PLAYORDER=
